{
	"asset":{
		"generator":"Khronos glTF Blender I/O v3.6.27",
		"version":"2.0"
	},
	"scene":0,
	"scenes":[
		{
			"name":"Scene",
			"nodes":[
				1
			]
		}
	],
	"nodes":[
		{
			"mesh":0,
			"name":"\u7403",
			"rotation":[
				0.7213335633277893,
				-0.0028733094222843647,
				-0.0027702057268470526,
				0.6925763487815857
			],
			"scale":[
				0.20146575570106506,
				0.22682708501815796,
				0.20306672155857086
			],
			"translation":[
				0.0706622377038002,
				2.5181334018707275,
				0.385721355676651
			]
		},
		{
			"children":[
				0
			],
			"mesh":1,
			"name":"\u5186",
			"rotation":[
				-0.7071068286895752,
				0,
				0,
				0.7071068286895752
			],
			"scale":[
				0.4528813362121582,
				0.4528813362121582,
				0.4052759110927582
			],
			"translation":[
				-0.0017526553710922599,
				0.137985959649086,
				-0.03158627822995186
			]
		}
	],
	"materials":[
		{
			"doubleSided":true,
			"name":"\u30de\u30c6\u30ea\u30a2\u30eb",
			"pbrMetallicRoughness":{
				"baseColorFactor":[
					0.37536951899528503,
					0.3975314497947693,
					0.21310962736606598,
					1
				],
				"metallicFactor":0,
				"roughnessFactor":0.5
			}
		},
		{
			"doubleSided":true,
			"name":"\u30de\u30c6\u30ea\u30a2\u30eb.001",
			"pbrMetallicRoughness":{
				"baseColorFactor":[
					0.5856566429138184,
					0.5981865525245667,
					0.401122123003006,
					1
				],
				"metallicFactor":0,
				"roughnessFactor":0.5
			}
		}
	],
	"meshes":[
		{
			"name":"\u7403",
			"primitives":[
				{
					"attributes":{
						"POSITION":0,
						"NORMAL":1,
						"TEXCOORD_0":2
					},
					"indices":3,
					"material":0
				}
			]
		},
		{
			"name":"\u5186.001",
			"primitives":[
				{
					"attributes":{
						"POSITION":4,
						"NORMAL":5,
						"TEXCOORD_0":6
					},
					"indices":7,
					"material":1
				}
			]
		}
	],
	"accessors":[
		{
			"bufferView":0,
			"componentType":5126,
			"count":63488,
			"max":[
				2.7061352729797363,
				1.351750373840332,
				10.578369140625
			],
			"min":[
				-3.252990484237671,
				-0.6446805000305176,
				8.572422981262207
			],
			"type":"VEC3"
		},
		{
			"bufferView":1,
			"componentType":5126,
			"count":63488,
			"type":"VEC3"
		},
		{
			"bufferView":2,
			"componentType":5126,
			"count":63488,
			"type":"VEC2"
		},
		{
			"bufferView":3,
			"componentType":5123,
			"count":95232,
			"type":"SCALAR"
		},
		{
			"bufferView":4,
			"componentType":5126,
			"count":131072,
			"max":[
				1.1100184917449951,
				6.625347137451172,
				1.3481141328811646
			],
			"min":[
				-1.1100186109542847,
				-0.05780525505542755,
				-0.33374789357185364
			],
			"type":"VEC3"
		},
		{
			"bufferView":5,
			"componentType":5126,
			"count":131072,
			"type":"VEC3"
		},
		{
			"bufferView":6,
			"componentType":5126,
			"count":131072,
			"type":"VEC2"
		},
		{
			"bufferView":7,
			"componentType":5125,
			"count":196608,
			"type":"SCALAR"
		}
	],
	"bufferViews":[
		{
			"buffer":0,
			"byteLength":761856,
			"byteOffset":0,
			"target":34962
		},
		{
			"buffer":0,
			"byteLength":761856,
			"byteOffset":761856,
			"target":34962
		},
		{
			"buffer":0,
			"byteLength":507904,
			"byteOffset":1523712,
			"target":34962
		},
		{
			"buffer":0,
			"byteLength":190464,
			"byteOffset":2031616,
			"target":34963
		},
		{
			"buffer":0,
			"byteLength":1572864,
			"byteOffset":2222080,
			"target":34962
		},
		{
			"buffer":0,
			"byteLength":1572864,
			"byteOffset":3794944,
			"target":34962
		},
		{
			"buffer":0,
			"byteLength":1048576,
			"byteOffset":5367808,
			"target":34962
		},
		{
			"buffer":0,
			"byteLength":786432,
			"byteOffset":6416384,
			"target":34963
		}
	],
	"buffers":[
		{
			"byteLength":7202816,
			"uri":"testmodel1229.bin"
		}
	]
}
