{
	"asset":{
		"generator":"Khronos glTF Blender I/O v3.6.27",
		"version":"2.0"
	},
	"extensionsUsed":[
		"KHR_materials_clearcoat"
	],
	"scene":0,
	"scenes":[
		{
			"name":"Scene",
			"nodes":[
				8
			]
		}
	],
	"nodes":[
		{
			"name":"Bone.002",
			"rotation":[
				0.002309006405994296,
				5.093310855055452e-19,
				5.093213144345594e-19,
				0.9999973177909851
			],
			"scale":[
				1,
				1.0000001192092896,
				1.0000001192092896
			],
			"translation":[
				-1.3183191012563879e-24,
				0.4288163185119629,
				3.725290298461914e-09
			]
		},
		{
			"children":[
				0
			],
			"name":"Bone.001",
			"rotation":[
				-0.004464175086468458,
				-9.868356731600767e-19,
				-9.868357765576532e-19,
				0.9999900460243225
			],
			"scale":[
				1,
				0.9999999403953552,
				0.9999999403953552
			],
			"translation":[
				0,
				1.000000238418579,
				9.981150128623995e-09
			]
		},
		{
			"children":[
				1
			],
			"name":"Bone",
			"rotation":[
				-1.7763568394002505e-15,
				0,
				0,
				1
			],
			"translation":[
				0,
				2.3194006359972263e-07,
				8.989054833818955e-09
			]
		},
		{
			"name":"Bone.004",
			"rotation":[
				0.032479219138622284,
				2.2838235209238222e-12,
				9.728599934533122e-07,
				0.999472439289093
			],
			"scale":[
				1,
				1,
				0.9999999403953552
			],
			"translation":[
				1.7051835746358102e-13,
				1.033719539642334,
				-3.725290298461914e-09
			]
		},
		{
			"children":[
				3
			],
			"name":"Bone.003",
			"rotation":[
				-1.4976621969253756e-05,
				-0.0022188439033925533,
				0.9999975562095642,
				3.323178177083719e-08
			],
			"scale":[
				1,
				0.999999463558197,
				0.9999999403953552
			],
			"translation":[
				0,
				2.3194006359972263e-07,
				8.989054833818955e-09
			]
		},
		{
			"name":"Bone.006",
			"rotation":[
				0.006578519474714994,
				7.30362430576146e-19,
				-4.807661769656994e-21,
				0.9999783635139465
			],
			"translation":[
				-1.6543612251060553e-24,
				0.5819921493530273,
				8.195638656616211e-08
			]
		},
		{
			"children":[
				5
			],
			"name":"Bone.005",
			"rotation":[
				-0.7117432355880737,
				-7.849951954062113e-17,
				-7.849951954062113e-17,
				0.7024397253990173
			],
			"translation":[
				0,
				2.3194006359972263e-07,
				8.989054833818955e-09
			]
		},
		{
			"mesh":0,
			"name":"\u5186",
			"skin":0
		},
		{
			"children":[
				7,
				2,
				4,
				6
			],
			"name":"\u30a2\u30fc\u30de\u30c1\u30e5\u30a2",
			"rotation":[
				0.7071068286895752,
				0,
				0,
				0.7071068286895752
			],
			"scale":[
				0.6244449615478516,
				0.6244449615478516,
				0.6244449615478516
			],
			"translation":[
				0,
				0.09254977107048035,
				-1.6185221672058105
			]
		}
	],
	"animations":[
		{
			"channels":[
				{
					"sampler":0,
					"target":{
						"node":2,
						"path":"translation"
					}
				},
				{
					"sampler":1,
					"target":{
						"node":2,
						"path":"rotation"
					}
				},
				{
					"sampler":2,
					"target":{
						"node":2,
						"path":"scale"
					}
				},
				{
					"sampler":3,
					"target":{
						"node":1,
						"path":"translation"
					}
				},
				{
					"sampler":4,
					"target":{
						"node":1,
						"path":"rotation"
					}
				},
				{
					"sampler":5,
					"target":{
						"node":1,
						"path":"scale"
					}
				},
				{
					"sampler":6,
					"target":{
						"node":0,
						"path":"translation"
					}
				},
				{
					"sampler":7,
					"target":{
						"node":0,
						"path":"rotation"
					}
				},
				{
					"sampler":8,
					"target":{
						"node":0,
						"path":"scale"
					}
				},
				{
					"sampler":9,
					"target":{
						"node":4,
						"path":"translation"
					}
				},
				{
					"sampler":10,
					"target":{
						"node":4,
						"path":"rotation"
					}
				},
				{
					"sampler":11,
					"target":{
						"node":4,
						"path":"scale"
					}
				},
				{
					"sampler":12,
					"target":{
						"node":3,
						"path":"translation"
					}
				},
				{
					"sampler":13,
					"target":{
						"node":3,
						"path":"rotation"
					}
				},
				{
					"sampler":14,
					"target":{
						"node":3,
						"path":"scale"
					}
				},
				{
					"sampler":15,
					"target":{
						"node":6,
						"path":"translation"
					}
				},
				{
					"sampler":16,
					"target":{
						"node":6,
						"path":"rotation"
					}
				},
				{
					"sampler":17,
					"target":{
						"node":6,
						"path":"scale"
					}
				},
				{
					"sampler":18,
					"target":{
						"node":5,
						"path":"translation"
					}
				},
				{
					"sampler":19,
					"target":{
						"node":5,
						"path":"rotation"
					}
				},
				{
					"sampler":20,
					"target":{
						"node":5,
						"path":"scale"
					}
				}
			],
			"name":"\u30a2\u30fc\u30de\u30c1\u30e5\u30a2Action",
			"samplers":[
				{
					"input":13,
					"interpolation":"LINEAR",
					"output":14
				},
				{
					"input":15,
					"interpolation":"STEP",
					"output":16
				},
				{
					"input":15,
					"interpolation":"STEP",
					"output":17
				},
				{
					"input":15,
					"interpolation":"STEP",
					"output":18
				},
				{
					"input":15,
					"interpolation":"STEP",
					"output":19
				},
				{
					"input":15,
					"interpolation":"STEP",
					"output":20
				},
				{
					"input":15,
					"interpolation":"STEP",
					"output":21
				},
				{
					"input":15,
					"interpolation":"STEP",
					"output":22
				},
				{
					"input":15,
					"interpolation":"STEP",
					"output":23
				},
				{
					"input":15,
					"interpolation":"STEP",
					"output":24
				},
				{
					"input":15,
					"interpolation":"STEP",
					"output":25
				},
				{
					"input":13,
					"interpolation":"LINEAR",
					"output":26
				},
				{
					"input":15,
					"interpolation":"STEP",
					"output":27
				},
				{
					"input":15,
					"interpolation":"STEP",
					"output":28
				},
				{
					"input":15,
					"interpolation":"STEP",
					"output":29
				},
				{
					"input":15,
					"interpolation":"STEP",
					"output":30
				},
				{
					"input":13,
					"interpolation":"LINEAR",
					"output":31
				},
				{
					"input":13,
					"interpolation":"LINEAR",
					"output":32
				},
				{
					"input":15,
					"interpolation":"STEP",
					"output":33
				},
				{
					"input":15,
					"interpolation":"STEP",
					"output":34
				},
				{
					"input":15,
					"interpolation":"STEP",
					"output":35
				}
			]
		}
	],
	"materials":[
		{
			"doubleSided":true,
			"name":"\u30de\u30c6\u30ea\u30a2\u30eb.001",
			"pbrMetallicRoughness":{
				"baseColorTexture":{
					"index":0
				},
				"metallicFactor":0,
				"roughnessFactor":0.5
			}
		},
		{
			"doubleSided":true,
			"extensions":{
				"KHR_materials_clearcoat":{
					"clearcoatFactor":1,
					"clearcoatRoughnessFactor":0.029999999329447746
				}
			},
			"name":"\u76ee",
			"pbrMetallicRoughness":{
				"baseColorFactor":[
					0.03741012513637543,
					0.03741012513637543,
					0.03741012513637543,
					1
				],
				"metallicFactor":0,
				"roughnessFactor":0.5
			}
		}
	],
	"meshes":[
		{
			"name":"\u5186.001",
			"primitives":[
				{
					"attributes":{
						"POSITION":0,
						"NORMAL":1,
						"TEXCOORD_0":2,
						"JOINTS_0":3,
						"WEIGHTS_0":4
					},
					"indices":5,
					"material":0
				},
				{
					"attributes":{
						"POSITION":6,
						"NORMAL":7,
						"TEXCOORD_0":8,
						"JOINTS_0":9,
						"WEIGHTS_0":10
					},
					"indices":11,
					"material":1
				}
			]
		}
	],
	"textures":[
		{
			"sampler":0,
			"source":0
		}
	],
	"images":[
		{
			"mimeType":"image/png",
			"name":"grid",
			"uri":"grid.png"
		}
	],
	"skins":[
		{
			"inverseBindMatrices":12,
			"joints":[
				2,
				1,
				0,
				4,
				3,
				6,
				5
			],
			"name":"\u30a2\u30fc\u30de\u30c1\u30e5\u30a2"
		}
	],
	"accessors":[
		{
			"bufferView":0,
			"componentType":5126,
			"count":131072,
			"max":[
				0.5116071105003357,
				0.7045058012008667,
				-0.005180231761187315
			],
			"min":[
				-0.5107892155647278,
				0.002726006554439664,
				-3.0355215072631836
			],
			"type":"VEC3"
		},
		{
			"bufferView":1,
			"componentType":5126,
			"count":131072,
			"type":"VEC3"
		},
		{
			"bufferView":2,
			"componentType":5126,
			"count":131072,
			"type":"VEC2"
		},
		{
			"bufferView":3,
			"componentType":5121,
			"count":131072,
			"type":"VEC4"
		},
		{
			"bufferView":4,
			"componentType":5126,
			"count":131072,
			"type":"VEC4"
		},
		{
			"bufferView":5,
			"componentType":5125,
			"count":196608,
			"type":"SCALAR"
		},
		{
			"bufferView":6,
			"componentType":5126,
			"count":63488,
			"max":[
				0.2701115906238556,
				0.3828609585762024,
				-0.2004387527704239
			],
			"min":[
				-0.2736169695854187,
				0.19235378503799438,
				-0.3819728493690491
			],
			"type":"VEC3"
		},
		{
			"bufferView":7,
			"componentType":5126,
			"count":63488,
			"type":"VEC3"
		},
		{
			"bufferView":8,
			"componentType":5126,
			"count":63488,
			"type":"VEC2"
		},
		{
			"bufferView":9,
			"componentType":5121,
			"count":63488,
			"type":"VEC4"
		},
		{
			"bufferView":10,
			"componentType":5126,
			"count":63488,
			"type":"VEC4"
		},
		{
			"bufferView":11,
			"componentType":5123,
			"count":95232,
			"type":"SCALAR"
		},
		{
			"bufferView":12,
			"componentType":5126,
			"count":7,
			"type":"MAT4"
		},
		{
			"bufferView":13,
			"componentType":5126,
			"count":321,
			"max":[
				13.333333333333334
			],
			"min":[
				0
			],
			"type":"SCALAR"
		},
		{
			"bufferView":14,
			"componentType":5126,
			"count":321,
			"type":"VEC3"
		},
		{
			"bufferView":15,
			"componentType":5126,
			"count":2,
			"max":[
				13.333333333333334
			],
			"min":[
				0
			],
			"type":"SCALAR"
		},
		{
			"bufferView":16,
			"componentType":5126,
			"count":2,
			"type":"VEC4"
		},
		{
			"bufferView":17,
			"componentType":5126,
			"count":2,
			"type":"VEC3"
		},
		{
			"bufferView":18,
			"componentType":5126,
			"count":2,
			"type":"VEC3"
		},
		{
			"bufferView":19,
			"componentType":5126,
			"count":2,
			"type":"VEC4"
		},
		{
			"bufferView":20,
			"componentType":5126,
			"count":2,
			"type":"VEC3"
		},
		{
			"bufferView":21,
			"componentType":5126,
			"count":2,
			"type":"VEC3"
		},
		{
			"bufferView":22,
			"componentType":5126,
			"count":2,
			"type":"VEC4"
		},
		{
			"bufferView":23,
			"componentType":5126,
			"count":2,
			"type":"VEC3"
		},
		{
			"bufferView":24,
			"componentType":5126,
			"count":2,
			"type":"VEC3"
		},
		{
			"bufferView":25,
			"componentType":5126,
			"count":2,
			"type":"VEC4"
		},
		{
			"bufferView":26,
			"componentType":5126,
			"count":321,
			"type":"VEC3"
		},
		{
			"bufferView":27,
			"componentType":5126,
			"count":2,
			"type":"VEC3"
		},
		{
			"bufferView":28,
			"componentType":5126,
			"count":2,
			"type":"VEC4"
		},
		{
			"bufferView":29,
			"componentType":5126,
			"count":2,
			"type":"VEC3"
		},
		{
			"bufferView":30,
			"componentType":5126,
			"count":2,
			"type":"VEC3"
		},
		{
			"bufferView":31,
			"componentType":5126,
			"count":321,
			"type":"VEC4"
		},
		{
			"bufferView":32,
			"componentType":5126,
			"count":321,
			"type":"VEC3"
		},
		{
			"bufferView":33,
			"componentType":5126,
			"count":2,
			"type":"VEC3"
		},
		{
			"bufferView":34,
			"componentType":5126,
			"count":2,
			"type":"VEC4"
		},
		{
			"bufferView":35,
			"componentType":5126,
			"count":2,
			"type":"VEC3"
		}
	],
	"bufferViews":[
		{
			"buffer":0,
			"byteLength":1572864,
			"byteOffset":0,
			"target":34962
		},
		{
			"buffer":0,
			"byteLength":1572864,
			"byteOffset":1572864,
			"target":34962
		},
		{
			"buffer":0,
			"byteLength":1048576,
			"byteOffset":3145728,
			"target":34962
		},
		{
			"buffer":0,
			"byteLength":524288,
			"byteOffset":4194304,
			"target":34962
		},
		{
			"buffer":0,
			"byteLength":2097152,
			"byteOffset":4718592,
			"target":34962
		},
		{
			"buffer":0,
			"byteLength":786432,
			"byteOffset":6815744,
			"target":34963
		},
		{
			"buffer":0,
			"byteLength":761856,
			"byteOffset":7602176,
			"target":34962
		},
		{
			"buffer":0,
			"byteLength":761856,
			"byteOffset":8364032,
			"target":34962
		},
		{
			"buffer":0,
			"byteLength":507904,
			"byteOffset":9125888,
			"target":34962
		},
		{
			"buffer":0,
			"byteLength":253952,
			"byteOffset":9633792,
			"target":34962
		},
		{
			"buffer":0,
			"byteLength":1015808,
			"byteOffset":9887744,
			"target":34962
		},
		{
			"buffer":0,
			"byteLength":190464,
			"byteOffset":10903552,
			"target":34963
		},
		{
			"buffer":0,
			"byteLength":448,
			"byteOffset":11094016
		},
		{
			"buffer":0,
			"byteLength":1284,
			"byteOffset":11094464
		},
		{
			"buffer":0,
			"byteLength":3852,
			"byteOffset":11095748
		},
		{
			"buffer":0,
			"byteLength":8,
			"byteOffset":11099600
		},
		{
			"buffer":0,
			"byteLength":32,
			"byteOffset":11099608
		},
		{
			"buffer":0,
			"byteLength":24,
			"byteOffset":11099640
		},
		{
			"buffer":0,
			"byteLength":24,
			"byteOffset":11099664
		},
		{
			"buffer":0,
			"byteLength":32,
			"byteOffset":11099688
		},
		{
			"buffer":0,
			"byteLength":24,
			"byteOffset":11099720
		},
		{
			"buffer":0,
			"byteLength":24,
			"byteOffset":11099744
		},
		{
			"buffer":0,
			"byteLength":32,
			"byteOffset":11099768
		},
		{
			"buffer":0,
			"byteLength":24,
			"byteOffset":11099800
		},
		{
			"buffer":0,
			"byteLength":24,
			"byteOffset":11099824
		},
		{
			"buffer":0,
			"byteLength":32,
			"byteOffset":11099848
		},
		{
			"buffer":0,
			"byteLength":3852,
			"byteOffset":11099880
		},
		{
			"buffer":0,
			"byteLength":24,
			"byteOffset":11103732
		},
		{
			"buffer":0,
			"byteLength":32,
			"byteOffset":11103756
		},
		{
			"buffer":0,
			"byteLength":24,
			"byteOffset":11103788
		},
		{
			"buffer":0,
			"byteLength":24,
			"byteOffset":11103812
		},
		{
			"buffer":0,
			"byteLength":5136,
			"byteOffset":11103836
		},
		{
			"buffer":0,
			"byteLength":3852,
			"byteOffset":11108972
		},
		{
			"buffer":0,
			"byteLength":24,
			"byteOffset":11112824
		},
		{
			"buffer":0,
			"byteLength":32,
			"byteOffset":11112848
		},
		{
			"buffer":0,
			"byteLength":24,
			"byteOffset":11112880
		}
	],
	"samplers":[
		{
			"magFilter":9729,
			"minFilter":9987
		}
	],
	"buffers":[
		{
			"byteLength":11112904,
			"uri":"testmodel0101_.bin"
		}
	]
}
