{
	"asset":{
		"generator":"Khronos glTF Blender I/O v3.6.27",
		"version":"2.0"
	},
	"scene":0,
	"scenes":[
		{
			"name":"Scene",
			"nodes":[
				7
			]
		}
	],
	"nodes":[
		{
			"name":"Bone.002",
			"rotation":[
				-0.00442078011110425,
				1.1920811715526725e-07,
				-5.26997945282659e-10,
				0.9999902248382568
			],
			"scale":[
				1,
				0.9999998807907104,
				0.9999999403953552
			],
			"translation":[
				-4.336808689942018e-18,
				1.069985270500183,
				3.725290298461914e-09
			]
		},
		{
			"children":[
				0
			],
			"name":"Bone.001",
			"rotation":[
				0.009522492997348309,
				2.134752156110514e-18,
				2.134751949315361e-18,
				0.9999547004699707
			],
			"translation":[
				0,
				1,
				9.95761695321562e-09
			]
		},
		{
			"children":[
				1
			],
			"name":"Bone",
			"translation":[
				0,
				-0.9679062366485596,
				0.010188544169068336
			]
		},
		{
			"name":"Bone.003",
			"rotation":[
				-0.7022473216056824,
				-7.84990827892577e-17,
				-7.84990960241475e-17,
				0.7119330763816833
			],
			"scale":[
				1,
				0.9999999403953552,
				0.9999999403953552
			],
			"translation":[
				0,
				-0.9679062366485596,
				0.010188544169068336
			]
		},
		{
			"name":"Bone.005",
			"rotation":[
				0.03986034542322159,
				-2.6110991691833015e-14,
				7.254284639657271e-08,
				0.9992052912712097
			],
			"scale":[
				1,
				0.9999998807907104,
				0.9999997019767761
			],
			"translation":[
				4.482956228457624e-10,
				1.1422470808029175,
				2.086500217046705e-08
			]
		},
		{
			"children":[
				4
			],
			"name":"Bone.004",
			"rotation":[
				9.09736570520181e-07,
				-0.02230476215481758,
				-0.9997512102127075,
				2.0296528902008504e-08
			],
			"scale":[
				1,
				1.0000001192092896,
				1
			],
			"translation":[
				0,
				-0.9679062366485596,
				0.010188544169068336
			]
		},
		{
			"mesh":0,
			"name":"\u5186",
			"skin":0
		},
		{
			"children":[
				6,
				2,
				3,
				5
			],
			"name":"\u30a2\u30fc\u30de\u30c1\u30e5\u30a2",
			"rotation":[
				0.7071068286895752,
				0,
				0,
				0.7071068286895752
			],
			"scale":[
				0.5348300933837891,
				0.5348300933837891,
				0.5348300933837891
			],
			"translation":[
				-0.00175262161064893,
				0.1522170603275299,
				-1.2329387664794922
			]
		}
	],
	"animations":[
		{
			"channels":[
				{
					"sampler":0,
					"target":{
						"node":2,
						"path":"translation"
					}
				},
				{
					"sampler":1,
					"target":{
						"node":2,
						"path":"rotation"
					}
				},
				{
					"sampler":2,
					"target":{
						"node":2,
						"path":"scale"
					}
				},
				{
					"sampler":3,
					"target":{
						"node":1,
						"path":"translation"
					}
				},
				{
					"sampler":4,
					"target":{
						"node":1,
						"path":"rotation"
					}
				},
				{
					"sampler":5,
					"target":{
						"node":1,
						"path":"scale"
					}
				},
				{
					"sampler":6,
					"target":{
						"node":0,
						"path":"translation"
					}
				},
				{
					"sampler":7,
					"target":{
						"node":0,
						"path":"rotation"
					}
				},
				{
					"sampler":8,
					"target":{
						"node":0,
						"path":"scale"
					}
				},
				{
					"sampler":9,
					"target":{
						"node":3,
						"path":"translation"
					}
				},
				{
					"sampler":10,
					"target":{
						"node":3,
						"path":"rotation"
					}
				},
				{
					"sampler":11,
					"target":{
						"node":3,
						"path":"scale"
					}
				},
				{
					"sampler":12,
					"target":{
						"node":5,
						"path":"translation"
					}
				},
				{
					"sampler":13,
					"target":{
						"node":5,
						"path":"rotation"
					}
				},
				{
					"sampler":14,
					"target":{
						"node":5,
						"path":"scale"
					}
				},
				{
					"sampler":15,
					"target":{
						"node":4,
						"path":"translation"
					}
				},
				{
					"sampler":16,
					"target":{
						"node":4,
						"path":"rotation"
					}
				},
				{
					"sampler":17,
					"target":{
						"node":4,
						"path":"scale"
					}
				}
			],
			"name":"\u30a2\u30fc\u30de\u30c1\u30e5\u30a2Action",
			"samplers":[
				{
					"input":7,
					"interpolation":"LINEAR",
					"output":8
				},
				{
					"input":9,
					"interpolation":"STEP",
					"output":10
				},
				{
					"input":9,
					"interpolation":"STEP",
					"output":11
				},
				{
					"input":9,
					"interpolation":"STEP",
					"output":12
				},
				{
					"input":9,
					"interpolation":"STEP",
					"output":13
				},
				{
					"input":9,
					"interpolation":"STEP",
					"output":14
				},
				{
					"input":9,
					"interpolation":"STEP",
					"output":15
				},
				{
					"input":9,
					"interpolation":"STEP",
					"output":16
				},
				{
					"input":9,
					"interpolation":"STEP",
					"output":17
				},
				{
					"input":9,
					"interpolation":"STEP",
					"output":18
				},
				{
					"input":7,
					"interpolation":"LINEAR",
					"output":19
				},
				{
					"input":9,
					"interpolation":"STEP",
					"output":20
				},
				{
					"input":7,
					"interpolation":"LINEAR",
					"output":21
				},
				{
					"input":9,
					"interpolation":"STEP",
					"output":22
				},
				{
					"input":9,
					"interpolation":"STEP",
					"output":23
				},
				{
					"input":9,
					"interpolation":"STEP",
					"output":24
				},
				{
					"input":9,
					"interpolation":"STEP",
					"output":25
				},
				{
					"input":9,
					"interpolation":"STEP",
					"output":26
				}
			]
		}
	],
	"materials":[
		{
			"doubleSided":true,
			"name":"\u30de\u30c6\u30ea\u30a2\u30eb.001",
			"pbrMetallicRoughness":{
				"baseColorFactor":[
					0.5856566429138184,
					0.5981865525245667,
					0.401122123003006,
					1
				],
				"metallicFactor":0,
				"roughnessFactor":0.5
			}
		}
	],
	"meshes":[
		{
			"name":"\u5186.001",
			"primitives":[
				{
					"attributes":{
						"POSITION":0,
						"NORMAL":1,
						"TEXCOORD_0":2,
						"JOINTS_0":3,
						"WEIGHTS_0":4
					},
					"indices":5,
					"material":0
				}
			]
		}
	],
	"skins":[
		{
			"inverseBindMatrices":6,
			"joints":[
				2,
				1,
				0,
				3,
				5,
				4
			],
			"name":"\u30a2\u30fc\u30de\u30c1\u30e5\u30a2"
		}
	],
	"accessors":[
		{
			"bufferView":0,
			"componentType":5126,
			"count":385024,
			"max":[
				0.5009540319442749,
				0.6843440532684326,
				-0.005407368298619986
			],
			"min":[
				-0.5044593811035156,
				0.0027259618509560823,
				-3.0320823192596436
			],
			"type":"VEC3"
		},
		{
			"bufferView":1,
			"componentType":5126,
			"count":385024,
			"type":"VEC3"
		},
		{
			"bufferView":2,
			"componentType":5126,
			"count":385024,
			"type":"VEC2"
		},
		{
			"bufferView":3,
			"componentType":5121,
			"count":385024,
			"type":"VEC4"
		},
		{
			"bufferView":4,
			"componentType":5126,
			"count":385024,
			"type":"VEC4"
		},
		{
			"bufferView":5,
			"componentType":5125,
			"count":577536,
			"type":"SCALAR"
		},
		{
			"bufferView":6,
			"componentType":5126,
			"count":6,
			"type":"MAT4"
		},
		{
			"bufferView":7,
			"componentType":5126,
			"count":161,
			"max":[
				6.666666666666667
			],
			"min":[
				0
			],
			"type":"SCALAR"
		},
		{
			"bufferView":8,
			"componentType":5126,
			"count":161,
			"type":"VEC3"
		},
		{
			"bufferView":9,
			"componentType":5126,
			"count":2,
			"max":[
				6.666666666666667
			],
			"min":[
				0
			],
			"type":"SCALAR"
		},
		{
			"bufferView":10,
			"componentType":5126,
			"count":2,
			"type":"VEC4"
		},
		{
			"bufferView":11,
			"componentType":5126,
			"count":2,
			"type":"VEC3"
		},
		{
			"bufferView":12,
			"componentType":5126,
			"count":2,
			"type":"VEC3"
		},
		{
			"bufferView":13,
			"componentType":5126,
			"count":2,
			"type":"VEC4"
		},
		{
			"bufferView":14,
			"componentType":5126,
			"count":2,
			"type":"VEC3"
		},
		{
			"bufferView":15,
			"componentType":5126,
			"count":2,
			"type":"VEC3"
		},
		{
			"bufferView":16,
			"componentType":5126,
			"count":2,
			"type":"VEC4"
		},
		{
			"bufferView":17,
			"componentType":5126,
			"count":2,
			"type":"VEC3"
		},
		{
			"bufferView":18,
			"componentType":5126,
			"count":2,
			"type":"VEC3"
		},
		{
			"bufferView":19,
			"componentType":5126,
			"count":161,
			"type":"VEC4"
		},
		{
			"bufferView":20,
			"componentType":5126,
			"count":2,
			"type":"VEC3"
		},
		{
			"bufferView":21,
			"componentType":5126,
			"count":161,
			"type":"VEC3"
		},
		{
			"bufferView":22,
			"componentType":5126,
			"count":2,
			"type":"VEC4"
		},
		{
			"bufferView":23,
			"componentType":5126,
			"count":2,
			"type":"VEC3"
		},
		{
			"bufferView":24,
			"componentType":5126,
			"count":2,
			"type":"VEC3"
		},
		{
			"bufferView":25,
			"componentType":5126,
			"count":2,
			"type":"VEC4"
		},
		{
			"bufferView":26,
			"componentType":5126,
			"count":2,
			"type":"VEC3"
		}
	],
	"bufferViews":[
		{
			"buffer":0,
			"byteLength":4620288,
			"byteOffset":0,
			"target":34962
		},
		{
			"buffer":0,
			"byteLength":4620288,
			"byteOffset":4620288,
			"target":34962
		},
		{
			"buffer":0,
			"byteLength":3080192,
			"byteOffset":9240576,
			"target":34962
		},
		{
			"buffer":0,
			"byteLength":1540096,
			"byteOffset":12320768,
			"target":34962
		},
		{
			"buffer":0,
			"byteLength":6160384,
			"byteOffset":13860864,
			"target":34962
		},
		{
			"buffer":0,
			"byteLength":2310144,
			"byteOffset":20021248,
			"target":34963
		},
		{
			"buffer":0,
			"byteLength":384,
			"byteOffset":22331392
		},
		{
			"buffer":0,
			"byteLength":644,
			"byteOffset":22331776
		},
		{
			"buffer":0,
			"byteLength":1932,
			"byteOffset":22332420
		},
		{
			"buffer":0,
			"byteLength":8,
			"byteOffset":22334352
		},
		{
			"buffer":0,
			"byteLength":32,
			"byteOffset":22334360
		},
		{
			"buffer":0,
			"byteLength":24,
			"byteOffset":22334392
		},
		{
			"buffer":0,
			"byteLength":24,
			"byteOffset":22334416
		},
		{
			"buffer":0,
			"byteLength":32,
			"byteOffset":22334440
		},
		{
			"buffer":0,
			"byteLength":24,
			"byteOffset":22334472
		},
		{
			"buffer":0,
			"byteLength":24,
			"byteOffset":22334496
		},
		{
			"buffer":0,
			"byteLength":32,
			"byteOffset":22334520
		},
		{
			"buffer":0,
			"byteLength":24,
			"byteOffset":22334552
		},
		{
			"buffer":0,
			"byteLength":24,
			"byteOffset":22334576
		},
		{
			"buffer":0,
			"byteLength":2576,
			"byteOffset":22334600
		},
		{
			"buffer":0,
			"byteLength":24,
			"byteOffset":22337176
		},
		{
			"buffer":0,
			"byteLength":1932,
			"byteOffset":22337200
		},
		{
			"buffer":0,
			"byteLength":32,
			"byteOffset":22339132
		},
		{
			"buffer":0,
			"byteLength":24,
			"byteOffset":22339164
		},
		{
			"buffer":0,
			"byteLength":24,
			"byteOffset":22339188
		},
		{
			"buffer":0,
			"byteLength":32,
			"byteOffset":22339212
		},
		{
			"buffer":0,
			"byteLength":24,
			"byteOffset":22339244
		}
	],
	"buffers":[
		{
			"byteLength":22339268,
			"uri":"testmodel1231_v2.bin"
		}
	]
}
