{
	"asset":{
		"generator":"Khronos glTF Blender I/O v3.6.27",
		"version":"2.0"
	},
	"scene":0,
	"scenes":[
		{
			"name":"Scene",
			"nodes":[
				7
			]
		}
	],
	"nodes":[
		{
			"name":"Bone",
			"scale":[
				0.9999999403953552,
				0.9999999403953552,
				0.9999999403953552
			],
			"translation":[
				4.76837158203125e-07,
				0,
				0
			]
		},
		{
			"name":"Bone.002",
			"rotation":[
				0.007499368861317635,
				-4.3710155495091385e-08,
				-3.2780783643104883e-10,
				0.999971866607666
			],
			"scale":[
				0.9999999403953552,
				0.9999998807907104,
				0.9999999403953552
			],
			"translation":[
				-4.76837158203125e-07,
				1.5730676651000977,
				0
			]
		},
		{
			"children":[
				1
			],
			"name":"Bone.001",
			"rotation":[
				0,
				0.7071067690849304,
				0.7071067690849304,
				0
			],
			"scale":[
				0.9999999403953552,
				0.9999999403953552,
				0.9999999403953552
			],
			"translation":[
				4.76837158203125e-07,
				0,
				0
			]
		},
		{
			"name":"Bone.004",
			"rotation":[
				0.0015359765384346247,
				-6.462356239290306e-27,
				-3.410562083796284e-19,
				0.9999988079071045
			],
			"scale":[
				0.9999999403953552,
				0.9999999403953552,
				0.9999998807907104
			],
			"translation":[
				0,
				1.6042625904083252,
				8.940696716308594e-08
			]
		},
		{
			"children":[
				3
			],
			"name":"Bone.003",
			"rotation":[
				-0.7293227314949036,
				5.0129639070260324e-18,
				5.0129639070260324e-18,
				0.6841698884963989
			],
			"scale":[
				0.9999999403953552,
				0.9999999403953552,
				0.9999999403953552
			],
			"translation":[
				4.76837158203125e-07,
				0,
				0
			]
		},
		{
			"name":"neutral_bone",
			"rotation":[
				-0.7071067690849304,
				0,
				0,
				0.7071067690849304
			]
		},
		{
			"mesh":0,
			"name":"\u5186.002",
			"skin":0
		},
		{
			"children":[
				6,
				0,
				2,
				4,
				5
			],
			"name":"\u30a2\u30fc\u30de\u30c1\u30e5\u30a2",
			"scale":[
				0.17859040200710297,
				0.17859040200710297,
				0.17859040200710297
			],
			"translation":[
				-0.8167833685874939,
				0.06905360519886017,
				-0.9071993231773376
			]
		}
	],
	"animations":[
		{
			"channels":[
				{
					"sampler":0,
					"target":{
						"node":0,
						"path":"translation"
					}
				},
				{
					"sampler":1,
					"target":{
						"node":0,
						"path":"rotation"
					}
				},
				{
					"sampler":2,
					"target":{
						"node":0,
						"path":"scale"
					}
				},
				{
					"sampler":3,
					"target":{
						"node":2,
						"path":"translation"
					}
				},
				{
					"sampler":4,
					"target":{
						"node":2,
						"path":"rotation"
					}
				},
				{
					"sampler":5,
					"target":{
						"node":2,
						"path":"scale"
					}
				},
				{
					"sampler":6,
					"target":{
						"node":1,
						"path":"translation"
					}
				},
				{
					"sampler":7,
					"target":{
						"node":1,
						"path":"rotation"
					}
				},
				{
					"sampler":8,
					"target":{
						"node":1,
						"path":"scale"
					}
				},
				{
					"sampler":9,
					"target":{
						"node":4,
						"path":"translation"
					}
				},
				{
					"sampler":10,
					"target":{
						"node":4,
						"path":"rotation"
					}
				},
				{
					"sampler":11,
					"target":{
						"node":4,
						"path":"scale"
					}
				},
				{
					"sampler":12,
					"target":{
						"node":3,
						"path":"translation"
					}
				},
				{
					"sampler":13,
					"target":{
						"node":3,
						"path":"rotation"
					}
				},
				{
					"sampler":14,
					"target":{
						"node":3,
						"path":"scale"
					}
				}
			],
			"name":"\u30a2\u30fc\u30de\u30c1\u30e5\u30a2Action",
			"samplers":[
				{
					"input":13,
					"interpolation":"STEP",
					"output":14
				},
				{
					"input":13,
					"interpolation":"STEP",
					"output":15
				},
				{
					"input":16,
					"interpolation":"LINEAR",
					"output":17
				},
				{
					"input":13,
					"interpolation":"STEP",
					"output":18
				},
				{
					"input":13,
					"interpolation":"STEP",
					"output":19
				},
				{
					"input":13,
					"interpolation":"STEP",
					"output":20
				},
				{
					"input":13,
					"interpolation":"STEP",
					"output":21
				},
				{
					"input":13,
					"interpolation":"STEP",
					"output":22
				},
				{
					"input":13,
					"interpolation":"STEP",
					"output":23
				},
				{
					"input":13,
					"interpolation":"STEP",
					"output":24
				},
				{
					"input":13,
					"interpolation":"STEP",
					"output":25
				},
				{
					"input":13,
					"interpolation":"STEP",
					"output":26
				},
				{
					"input":13,
					"interpolation":"STEP",
					"output":27
				},
				{
					"input":16,
					"interpolation":"LINEAR",
					"output":28
				},
				{
					"input":13,
					"interpolation":"STEP",
					"output":29
				}
			]
		}
	],
	"materials":[
		{
			"doubleSided":true,
			"name":"\u30de\u30c6\u30ea\u30a2\u30eb.001",
			"pbrMetallicRoughness":{
				"baseColorTexture":{
					"index":0
				},
				"metallicFactor":0,
				"roughnessFactor":0.5
			}
		},
		{
			"doubleSided":true,
			"name":"\u76ee",
			"pbrMetallicRoughness":{
				"baseColorFactor":[
					0.20155607163906097,
					0.20155611634254456,
					0.20155629515647888,
					1
				],
				"metallicFactor":0,
				"roughnessFactor":0.5
			}
		}
	],
	"meshes":[
		{
			"name":"\u5186.002",
			"primitives":[
				{
					"attributes":{
						"POSITION":0,
						"NORMAL":1,
						"TEXCOORD_0":2,
						"JOINTS_0":3,
						"WEIGHTS_0":4
					},
					"indices":5,
					"material":0
				},
				{
					"attributes":{
						"POSITION":6,
						"NORMAL":7,
						"TEXCOORD_0":8,
						"JOINTS_0":9,
						"WEIGHTS_0":10
					},
					"indices":11,
					"material":1
				}
			]
		}
	],
	"textures":[
		{
			"sampler":0,
			"source":0
		}
	],
	"images":[
		{
			"mimeType":"image/png",
			"name":"grid",
			"uri":"grid.png"
		}
	],
	"skins":[
		{
			"inverseBindMatrices":12,
			"joints":[
				0,
				2,
				1,
				4,
				3,
				5
			],
			"name":"\u30a2\u30fc\u30de\u30c1\u30e5\u30a2"
		}
	],
	"accessors":[
		{
			"bufferView":0,
			"componentType":5126,
			"count":112510,
			"max":[
				-0.5975691676139832,
				0.30069848895072937,
				-0.20198148488998413
			],
			"min":[
				-1.04520583152771,
				-0.0019428174709901214,
				-1.4840340614318848
			],
			"type":"VEC3"
		},
		{
			"bufferView":1,
			"componentType":5126,
			"count":112510,
			"type":"VEC3"
		},
		{
			"bufferView":2,
			"componentType":5126,
			"count":112510,
			"type":"VEC2"
		},
		{
			"bufferView":3,
			"componentType":5121,
			"count":112510,
			"type":"VEC4"
		},
		{
			"bufferView":4,
			"componentType":5126,
			"count":112510,
			"type":"VEC4"
		},
		{
			"bufferView":5,
			"componentType":5125,
			"count":168768,
			"type":"SCALAR"
		},
		{
			"bufferView":6,
			"componentType":5126,
			"count":63488,
			"max":[
				-0.6600812077522278,
				0.21607479453086853,
				-0.30632591247558594
			],
			"min":[
				-0.9826938509941101,
				0.09710140526294708,
				-0.42415979504585266
			],
			"type":"VEC3"
		},
		{
			"bufferView":7,
			"componentType":5126,
			"count":63488,
			"type":"VEC3"
		},
		{
			"bufferView":8,
			"componentType":5126,
			"count":63488,
			"type":"VEC2"
		},
		{
			"bufferView":9,
			"componentType":5121,
			"count":63488,
			"type":"VEC4"
		},
		{
			"bufferView":10,
			"componentType":5126,
			"count":63488,
			"type":"VEC4"
		},
		{
			"bufferView":11,
			"componentType":5123,
			"count":95232,
			"type":"SCALAR"
		},
		{
			"bufferView":12,
			"componentType":5126,
			"count":6,
			"type":"MAT4"
		},
		{
			"bufferView":13,
			"componentType":5126,
			"count":2,
			"max":[
				6.666666666666667
			],
			"min":[
				0.041666666666666664
			],
			"type":"SCALAR"
		},
		{
			"bufferView":14,
			"componentType":5126,
			"count":2,
			"type":"VEC3"
		},
		{
			"bufferView":15,
			"componentType":5126,
			"count":2,
			"type":"VEC4"
		},
		{
			"bufferView":16,
			"componentType":5126,
			"count":160,
			"max":[
				6.666666666666667
			],
			"min":[
				0.041666666666666664
			],
			"type":"SCALAR"
		},
		{
			"bufferView":17,
			"componentType":5126,
			"count":160,
			"type":"VEC3"
		},
		{
			"bufferView":18,
			"componentType":5126,
			"count":2,
			"type":"VEC3"
		},
		{
			"bufferView":19,
			"componentType":5126,
			"count":2,
			"type":"VEC4"
		},
		{
			"bufferView":20,
			"componentType":5126,
			"count":2,
			"type":"VEC3"
		},
		{
			"bufferView":21,
			"componentType":5126,
			"count":2,
			"type":"VEC3"
		},
		{
			"bufferView":22,
			"componentType":5126,
			"count":2,
			"type":"VEC4"
		},
		{
			"bufferView":23,
			"componentType":5126,
			"count":2,
			"type":"VEC3"
		},
		{
			"bufferView":24,
			"componentType":5126,
			"count":2,
			"type":"VEC3"
		},
		{
			"bufferView":25,
			"componentType":5126,
			"count":2,
			"type":"VEC4"
		},
		{
			"bufferView":26,
			"componentType":5126,
			"count":2,
			"type":"VEC3"
		},
		{
			"bufferView":27,
			"componentType":5126,
			"count":2,
			"type":"VEC3"
		},
		{
			"bufferView":28,
			"componentType":5126,
			"count":160,
			"type":"VEC4"
		},
		{
			"bufferView":29,
			"componentType":5126,
			"count":2,
			"type":"VEC3"
		}
	],
	"bufferViews":[
		{
			"buffer":0,
			"byteLength":1350120,
			"byteOffset":0,
			"target":34962
		},
		{
			"buffer":0,
			"byteLength":1350120,
			"byteOffset":1350120,
			"target":34962
		},
		{
			"buffer":0,
			"byteLength":900080,
			"byteOffset":2700240,
			"target":34962
		},
		{
			"buffer":0,
			"byteLength":450040,
			"byteOffset":3600320,
			"target":34962
		},
		{
			"buffer":0,
			"byteLength":1800160,
			"byteOffset":4050360,
			"target":34962
		},
		{
			"buffer":0,
			"byteLength":675072,
			"byteOffset":5850520,
			"target":34963
		},
		{
			"buffer":0,
			"byteLength":761856,
			"byteOffset":6525592,
			"target":34962
		},
		{
			"buffer":0,
			"byteLength":761856,
			"byteOffset":7287448,
			"target":34962
		},
		{
			"buffer":0,
			"byteLength":507904,
			"byteOffset":8049304,
			"target":34962
		},
		{
			"buffer":0,
			"byteLength":253952,
			"byteOffset":8557208,
			"target":34962
		},
		{
			"buffer":0,
			"byteLength":1015808,
			"byteOffset":8811160,
			"target":34962
		},
		{
			"buffer":0,
			"byteLength":190464,
			"byteOffset":9826968,
			"target":34963
		},
		{
			"buffer":0,
			"byteLength":384,
			"byteOffset":10017432
		},
		{
			"buffer":0,
			"byteLength":8,
			"byteOffset":10017816
		},
		{
			"buffer":0,
			"byteLength":24,
			"byteOffset":10017824
		},
		{
			"buffer":0,
			"byteLength":32,
			"byteOffset":10017848
		},
		{
			"buffer":0,
			"byteLength":640,
			"byteOffset":10017880
		},
		{
			"buffer":0,
			"byteLength":1920,
			"byteOffset":10018520
		},
		{
			"buffer":0,
			"byteLength":24,
			"byteOffset":10020440
		},
		{
			"buffer":0,
			"byteLength":32,
			"byteOffset":10020464
		},
		{
			"buffer":0,
			"byteLength":24,
			"byteOffset":10020496
		},
		{
			"buffer":0,
			"byteLength":24,
			"byteOffset":10020520
		},
		{
			"buffer":0,
			"byteLength":32,
			"byteOffset":10020544
		},
		{
			"buffer":0,
			"byteLength":24,
			"byteOffset":10020576
		},
		{
			"buffer":0,
			"byteLength":24,
			"byteOffset":10020600
		},
		{
			"buffer":0,
			"byteLength":32,
			"byteOffset":10020624
		},
		{
			"buffer":0,
			"byteLength":24,
			"byteOffset":10020656
		},
		{
			"buffer":0,
			"byteLength":24,
			"byteOffset":10020680
		},
		{
			"buffer":0,
			"byteLength":2560,
			"byteOffset":10020704
		},
		{
			"buffer":0,
			"byteLength":24,
			"byteOffset":10023264
		}
	],
	"samplers":[
		{
			"magFilter":9729,
			"minFilter":9987
		}
	],
	"buffers":[
		{
			"byteLength":10023288,
			"uri":"testmodel_child_.bin"
		}
	]
}
