<?xml version="1.0" encoding="UTF-8"?>
<svg id="_レイヤー_2" data-name="レイヤー 2" xmlns="http://www.w3.org/2000/svg" viewBox="0 0 72 72">
  <defs>
    <style>
      .cls-1 {
        fill: #890000;
      }
    </style>
  </defs>
  <g id="_レイヤー_1-2" data-name="レイヤー 1">
    <g>
      <path class="cls-1" d="M61.69,72H10.31C4.62,72,0,67.38,0,61.69V10.31C0,4.62,4.62,0,10.31,0h51.39c5.68,0,10.31,4.62,10.31,10.31v51.39c0,5.68-4.62,10.31-10.31,10.31ZM10.31,1.83c-4.68,0-8.48,3.8-8.48,8.48v51.39c0,4.68,3.8,8.48,8.48,8.48h51.39c4.68,0,8.48-3.8,8.48-8.48V10.31c0-4.68-3.8-8.48-8.48-8.48H10.31Z"/>
      <g>
        <path class="cls-1" d="M22.87,51.22c-.73.79-.67,2.02.11,2.74.79.73,2.02.67,2.74-.11.73-.79.67-2.02-.11-2.74-.79-.73-2.02-.67-2.74.11Z"/>
        <path class="cls-1" d="M61.7,4.56H10.31c-3.17,0-5.74,2.57-5.74,5.74v51.39c0,3.17,2.57,5.74,5.74,5.74h51.39c3.17,0,5.74-2.57,5.74-5.74V10.3c0-3.17-2.57-5.74-5.74-5.74ZM55.25,18.36c-.74,19.7-8.36,31.13-22.45,34.78-8.95,16.48-35.08-1.55-17.42-13.34,3.96-1.95,9.68,1.31,10.21,1.39,1.26.18-4.27-4.31-9.67-2.71-.41-14.3,7.3-22.41,25.31-23.75,11.48-3.43,20.16-3.35,22.53.49-3.19.77-7.1,1.22-8.51,3.14Z"/>
        <path class="cls-1" d="M13.37,44.98c-.61-.35-1.55.11-2.08,1.04-.54.93-.47,1.97.14,2.32.61.35,1.55-.11,2.08-1.04s.47-1.97-.14-2.32Z"/>
      </g>
    </g>
  </g>
</svg>