<?xml version="1.0" encoding="UTF-8"?>
<svg id="_レイヤー_2" data-name="レイヤー 2" xmlns="http://www.w3.org/2000/svg" viewBox="0 0 125.86 605.86">
  <defs>
    <style>
      .cls-1 {
        fill: #fff;
      }
    </style>
  </defs>
  <g id="_レイヤー_1-2" data-name="レイヤー 1">
    <g>
      <path class="cls-1" d="M55.08,93.62c-24.35,0-40.65,17.64-41.11,27.59-.53,11.45,3.44,19.92,11.16,20.78,1.43.16,2.94.28,4.49.4,17.16,1.36,28.89-17.28,34.37-30.76,4.28-10.53-2.54-15.46-2.54-15.46,30.54,3.77,7.67,53.17-35.37,49.4,32.12,18.13,59.95-1.2,64.66-17.88,4.75-16.83-11.32-34.07-35.66-34.07ZM31.84,124.4c-2.79-2.79,15.32-28.74,19.27-25.74,3.95,3-14.93,30.08-19.27,25.74Z"/>
      <path class="cls-1" d="M65.35,0c-5.92,0-25.04,6.07-35.97,9.7-4.56-4.3-22.35-2.63-27.38,2.35,0,0,6.1,1.41,7.67,5.15s0,46.42,0,46.42c.06.47.23.9.47,1.3.43,2.11,2.06,7.87,7.11,7.87,6.18,0,26.95-2.61,34.38-2.61,3.49,0,8.88,1.14,13.63,2.36,7.25,2.29,16.03,4.78,19.8,4.78,6.94,0,7.83-2.46,7.83-7.38V24.73c0-2.08,8.47-4.74,8.47-11.24,0-5.93-27.54-13.48-35.99-13.48ZM30.13,63.81c.3-.58.43-1.21.34-1.9v-19.55c3.77-.66,7.7-1.33,11.46-1.33,11.2,0,18.32,3.7,20.36,3.61,7.37-.3-8.67-13.61-14.56-11.41-4.13,1.54-10.94,2.75-17.26,3.44V14.66c10.27-3.47,24.84-8.18,28.2-8.18,5.31,0,8.88,6.83,8.88,10.77s1.57,41.67-.55,47.25c-2.24-1.01-5.08-1.79-8.7-2.12-5.09-.47-17.28.55-28.15,1.42Z"/>
      <path class="cls-1" d="M70.1,170.17c-6.81,0-32.06,8.01-41.66,11.14-7.85-1.88-22.29-.02-26.44,4.08,0,0,4.52,1.41,6.09,5.15s3.17,59.09,3.17,59.09c.58,4.35,9.63,5.28,16.05,3.66.88.49,1.93.8,3.22.8,5.17,0,21.65-1.82,31.26-2.42,6.62,3.51,22.56,11.66,28.01,11.66,6.94,0,7.83-.87,7.83-5.79s3.17-55.8,3.17-57.88,6.88-4.74,6.88-11.24c0-5.93-29.12-18.23-37.58-18.23ZM64.99,176.81c5.18,1.2,7.29,11.42,7.29,15.36s1.48,45.32-.38,53.01c-7.77-.32-26.43,1.53-38.28,2.27v-16.95c6.33-2.65,15.96-7.04,33.4-.55,6.91,2.57-8.67-13.61-14.56-11.41-4.82,1.8-12.53,3.52-18.85,4.51v-12.43c6.33-2.65,15.96-7.04,33.4-.55,6.91,2.57-8.67-13.61-14.56-11.41-4.82,1.8-12.53,3.52-18.85,4.51v-17.77c0-.74-.29-1.38-.8-1.93,10.17-3.53,25.56-8.18,32.16-6.64Z"/>
      <path class="cls-1" d="M108.17,442.08s.81,23.7-10.5,28.21c-8.26,3.29-13.21,2.52-21.12-.99-9.04-4.01-10.19-26.62-10.3-35.1,5.75,3.92,15.1,9.77,19.72,9.77,6.94,0,7.83-.87,7.83-5.79s3.17-46.3,3.17-48.39,6.88-4.74,6.88-11.24c0-5.93-29.12-18.23-37.58-18.23-6.75,0-27.57,7.86-35.73,11.05-7.93-1.72-21.95.14-26.03,4.17,0,0,4.52,1.41,6.09,5.15,1.57,3.74,3.17,49.59,3.17,49.59.58,4.35,9.63,5.28,16.05,3.66.85.47,1.88.78,3.12.8,12.28,12.5-19.59,36.02-32.92,42.84,0,0,51.34-6.49,51.34-35.74,0-4.25-1.24-6.81-3.07-8.26,2.33-.22,4.69-.45,6.98-.65-.42,5.41-1.57,20.82-1.57,27.54,0,8.23,9.02,15.46,16.58,16.83,9.81,1.78,25.71.79,33.98,0,6.6-.63,21.62-.95,21.62-14.26s-17.69-20.96-17.69-20.96ZM62.74,366.97c5.18,1.2,5.71,11.42,5.71,15.36s1.47,36.55-.37,43.51c-7.08-.3-21.85,1.33-31.95,2.13v-14.46c6.13-1.87,14.61-2.79,27.07,1.85,6.91,2.57-8.67-13.61-14.56-11.41-3.28,1.22-7.9,2.41-12.51,3.36v-13.68c6.13-1.87,14.61-2.79,27.07,1.85,6.91,2.57-8.67-13.61-14.56-11.41-3.28,1.22-7.9,2.41-12.51,3.36v-11.87c0-.92-.44-1.69-1.2-2.33,8.76-3.47,21.45-7.73,27.82-6.25Z"/>
      <path class="cls-1" d="M86.04,524.25c-12.43-8.71-34.07,1.42-34.07,1.42,0,0,31.23-18.04,29.6-25.06-.52-2.26-9.4-7.35-11.53-7.35-8.58,0-35.35,14.78-40,3.25-6.46,2.32-8.61,17.15-.09,19.7,8.79,2.63,13.73-3.33,14.77-3.22-1.8,2.55-19.43,21.2-28.66,23.26-2.78.62-4.64-.68-4.95-.39-3.76,3.54,4.08,16.58,12.44,12.9,6.79-2.99,32.77-26.56,47.53-22.19,17.27,5.11,10.17,27.22-7.91,27.22-35.51-12.19-48.82,21.45-11.15,21.45,34.22,0,57.03-34.86,34.01-50.99ZM41.03,557.15c9.17-3.77,10.28,3.66,10.28,3.66,0,0-16.75-1-10.28-3.66Z"/>
      <path class="cls-1" d="M90.65,300.27c0-2.39-4.08-10.25-20.15-7.89,6.77,3.47,1.31,6.78-6.5,11.82,0-8.15-14.48-9.24-20.91-2.51,0,0,2.78-4.27,5.05-7.34,10.83-2.63,16.98-5.77,21.06-9.33,3.02-2.64,4.76-9.66-8.66-9.72-.34,1.61-2.14,4.02-5.66,4.31-5.26-3.64-20.46-7.41-20.46-2.75,0,1.61,4.81,1.98,4.92,7.83-6.22,1.01-11.65.49-11.66-1.53-8.21,10.7-3.15,14.73,5.96,14.91-2.36,2.31-7.43,6.45-10.83,8.32-1.5.83-1.59-1.04-2.83.13-3.48,3.26-5.13,9.06-5.13,11.35,0,6.22,6.23,9.47,9.95,6.37,5.25-4.36,21.22-22.49,24.79-21.01,1.46.6.37,3.68-.74,8.26-8.97,3.45-16.14,11.22-16.14,19.91s14.16,13.38,27.01,13.38,23.19-.26,26.53-4.32c2.24-2.73,2.17-9.87-1.39-12.86-4.17-3.5-41.83,13.14-46.07.97-1.4-4.04,2.58-10.12,9-12.18-.25,1.44-.42,2.82-.42,4.06,0,6.57,18.89,4.84,17.8-.64-.47-2.35-.74-5.06-.9-7.7,13.16-3.12,26.37-6.43,26.37-11.86Z"/>
      <path class="cls-1" d="M98.96,582.21c-4.08,0-9.07,1.91-11.19,5.06-1.28,1.89-2.17,1.23-2.17,3.68,0,4.49,3.14,3.68,3.26,4.34.96,5.56-.03,10.57,10.11,10.57,6.53,0,11.82-5.29,11.82-11.82s-5.29-11.82-11.82-11.82ZM98.62,601.04c-3.4,0-6.16-2.76-6.16-6.16,0-.55,1.46-1.55,1.6-2.06.7-2.63,1.71-4.1,4.56-4.1,3.4,0,6.16,2.76,6.16,6.16s-2.76,6.16-6.16,6.16Z"/>
    </g>
  </g>
</svg>