<?xml version="1.0" encoding="UTF-8"?>
<svg id="_レイヤー_2" data-name="レイヤー 2" xmlns="http://www.w3.org/2000/svg" viewBox="0 0 468 418">
  <defs>
    <style>
      .cls-1 {
        fill: none;
      }

      .cls-2 {
        fill: #fff;
      }
    </style>
  </defs>
  <g id="_レイヤー_1-2" data-name="レイヤー 1">
    <g>
      <g>
        <path class="cls-2" d="M40.92,9.71s-3.77,19.67,14.01,19.67c17.78,0,289.16-7.51,310.56-7.51,32.26,0,52.75,10.64,58.62,10.4,21.22-.85-24.98-37.18-41.92-30.86C353.89,11.98,33.77,17.1,40.92,9.71Z"/>
        <g>
          <path class="cls-2" d="M166.67,80.83c-1.8,4.25-3.51,8.87-5.27,13.85,46.65-.95,97.28-1.99,140.22-2.85-2.16-4.84-4.93-9.42-8.23-13.69-39.99,1.27-84.62,2.19-126.72,2.7Z"/>
          <path class="cls-2" d="M1.91,78.11c.03-.19.05-.31.05-.31-.1.1-.11.21-.05.31Z"/>
          <path class="cls-2" d="M420.5,69.51c-7.28,2.72-39.01,5.08-82,6.95,4.34,4.54,8.05,9.36,11.04,14.42,29.17-.56,49.56-.92,54.25-.92,32.26,0,52.75,10.64,58.62,10.4,21.22-.85-24.98-37.18-41.92-30.86Z"/>
          <path class="cls-2" d="M100.3,81.28c-55.99.04-97.06-.94-98.39-3.17-.38,2.46-2.43,19.36,14.06,19.36,4.8,0,33.73-.55,73.83-1.35.75-9.2,4.89-11.75,10.5-14.84Z"/>
        </g>
        <path class="cls-2" d="M40.28,145.53s-3.77,19.67,14.01,19.67c17.78,0,289.16-7.51,310.56-7.51,32.26,0,52.75,10.64,58.62,10.4,21.22-.85-24.98-37.18-41.92-30.86-28.31,10.56-348.42,15.68-341.27,8.3Z"/>
        <g>
          <path class="cls-2" d="M125.61,129.31c1.55,6.07,2.6,12,3.68,17.67,2.15,0,4.33-.02,6.52-.03-3.18-7.45-4.88-15.57-4.84-24.21.03-6.66,25.67-20.56,27.82-26.68,11.04-31.56,19.73-51.22,63.75-51.01,52.59.25,87.05,33.6,86.86,74.54-.04,8.01-1.42,15.7-3.97,22.91,18.51-.92,34.87-1.96,47.72-3.1,1.98-5.66,3.04-11.58,3.07-17.7.22-45.26-56.02-82.22-124.37-82.54-42.72-.2-94.97,12.81-117.32,34.51-13.41,13.02-22.79,8.43-22.87,25.4-.15,31.11,32.78,25.67,33.95,30.25Z"/>
          <path class="cls-2" d="M295.27,161.22c-14.89,19.5-40.71,32.23-73.43,32.08s-58.18-10.86-74.25-28.29c-4.66.12-9.22.24-13.67.35,7.76,20.93,26.87,35.37,97.17,35.7,47.05.22,88.53-16.02,109.87-40.93-12.06.27-27.78.65-45.68,1.1Z"/>
        </g>
        <path class="cls-2" d="M1.31,213.62s-3.77,19.67,14.01,19.67c17.78,0,366.42-7.51,387.83-7.51,32.26,0,52.75,10.64,58.62,10.4,21.22-.85-24.98-37.18-41.92-30.86-28.31,10.56-425.69,15.68-418.54,8.3Z"/>
        <path class="cls-2" d="M84.59,335.42c.04-.24.07-.38.07-.38-.13.13-.14.26-.07.38Z"/>
        <g>
          <path class="cls-2" d="M39.65,276.1c.04-.24.07-.38.07-.38-.13.13-.14.26-.07.38Z"/>
          <path class="cls-2" d="M177.8,283.07c.07-1.25-.34-2.53-1-3.74-71.87.81-135.31-.15-137.15-3.22-.43,2.61-2.32,18.28,13.98,18.35,7.52.04,60.43-1.06,120.6-2.32,2.21-4.7,3.51-7.92,3.58-9.07Z"/>
          <path class="cls-2" d="M381.02,269.05c-11.49,4.23-70.94,7.33-137.09,9.04,2.71,1.96,4.07,4.02,4.06,6.16-.01,2.28-.4,4.38-1.05,6.35,57.94-1.21,108.52-2.23,117.28-2.18,32.26.15,52.69,10.89,58.57,10.68,21.22-.75-24.8-36.3-41.77-30.06Z"/>
        </g>
        <path class="cls-2" d="M.45,395.76s-3.77,18.67,14.02,18.67c17.78,0,366.42-7.51,387.83-7.51,32.26,0,52.75,10.64,58.62,10.4,21.22-.85-24.98-36.18-41.92-29.86-28.31,10.56-425.69,15.68-418.54,8.3Z"/>
        <g>
          <path class="cls-2" d="M179.8,283.18c-.23,3.9-11.83,26.63-25.83,52.03,17.57-.26,36.5-.71,54.62-1.2,2.27-3.66,4.6-7.36,7.01-11.1,9.62-14.96,30.32-22.46,30.4-38.67.05-11.35-64.61-22.48-74.68-13.36,0,0,8.87,5.72,8.48,12.3Z"/>
          <path class="cls-2" d="M171.3,395.71c7.7-11.83,16.31-26.88,26.28-43.58-18.73.69-37.76,1.51-54.37,2.27-8.9,15.64-17.87,30.77-24.89,41.78,16.94-.08,34.8-.24,52.98-.48Z"/>
        </g>
        <path class="cls-2" d="M93.48,353.75c3.11.01,175.65-9.33,194.54-5.16,9.5,2.1,11.37,7.5,11.34,14.21-.03,6.7-7.07,18.6-11.4,25.78-1.36,2.26-4.57,4.24-8.34,5.91,21.38-.63,41.62-1.35,59.72-2.16,3.99-7.8,10.43-14.14,12.34-16.57,2.98-3.79,14.7-11,14.76-22.07.05-10.09-53.42-19.29-68.96-19.37-13.09-.06-217.94,8.55-217.97,1.07-.43,2.61-2.32,18.28,13.98,18.35Z"/>
      </g>
      <rect class="cls-1" width="468" height="418"/>
    </g>
  </g>
</svg>